<svg xmlns="http://www.w3.org/2000/svg" width="26" height="30.261" viewBox="0 0 26 30.261">
  <g id="Group_1" data-name="Group 1" transform="translate(0.5 1.19)">
    <path id="ic_place_24px" d="M15,30.571a9.993,9.993,0,0,1-10-10c0-3.135,3.165-6.878,5.431-10.566C13.03,5.766,15,2,15,2a51.351,51.351,0,0,0,4.337,8.006c2.125,3.229,5.663,7,5.663,10.566A9.993,9.993,0,0,1,15,30.571Z" transform="translate(-5 -2)" fill="#fff" stroke="#de2c2c" stroke-width="1"/>
    <path id="ic_place_24px-2" data-name="ic_place_24px" d="M10,16.286a5,5,0,0,1-5-5C5,9.718,6.582,7.847,7.715,6,9.015,3.883,10,2,10,2a25.676,25.676,0,0,0,2.169,4C13.231,7.618,15,9.5,15,11.286A5,5,0,0,1,10,16.286Z" transform="translate(10 12)" fill="#fff" stroke="#de2c2c" stroke-width="1"/>
  </g>
</svg>
