<svg id="Component_5_1" data-name="Component 5 – 1" xmlns="http://www.w3.org/2000/svg" width="238.498" height="239.839" viewBox="0 0 238.498 239.839">
  <path id="Subtraction_1" data-name="Subtraction 1" d="M966.382,272.5a100.737,100.737,0,0,1-20.153-2.032,99.453,99.453,0,0,1-35.757-15.047,100.291,100.291,0,0,1-36.23-44,99.494,99.494,0,0,1-5.827-18.771,100.977,100.977,0,0,1,0-40.307,99.453,99.453,0,0,1,15.047-35.757,100.292,100.292,0,0,1,44-36.23,99.493,99.493,0,0,1,18.771-5.827A100.737,100.737,0,0,1,966.382,72.5,99.508,99.508,0,0,1,1019.7,87.885,100.407,100.407,0,0,1,1055.91,127.9,99.1,99.1,0,0,1,1066,163.72a89.287,89.287,0,0,0-10.43-28.466,89.852,89.852,0,0,0-74.967-45.209c-1.061-.037-2.137-.056-3.2-.056a90.051,90.051,0,0,0-71.291,35.076,88.794,88.794,0,0,0-13.078,23.672,91.736,91.736,0,0,0-3.865,13.747,90.766,90.766,0,0,0-.462,32.557,89.509,89.509,0,0,0,12.411,32.635,90.265,90.265,0,0,0,38.436,33.97,89.549,89.549,0,0,0,16.7,5.831,90.666,90.666,0,0,0,18.063,2.461c1.049.037,2.124.056,3.2.056a90.3,90.3,0,0,0,18.067-1.824A100.059,100.059,0,0,1,966.382,272.5Z" transform="translate(-236.482 1038.308) rotate(-79)" fill="#1a1a1a"/>
  <path id="Path_3" data-name="Path 3" d="M-109.656,312.844s-46.866,52.756-50,91.663,20.622,61.413,61.136,59.717A40.018,40.018,0,0,0-90.232,463c34.754-8.816,50.221-63.931,23.1-86.267-10.573-8.709-27.142-16.482-33.82-26.928C-112.286,332.063-109.656,312.844-109.656,312.844Z" transform="translate(226.529 -273.792)" fill="#de2c2c"/>
  <path id="Subtraction_3" data-name="Subtraction 3" d="M924.686,252.7A75.031,75.031,0,0,1,927.108,108.8a80.183,80.183,0,0,0-16.888,10.579,78.915,78.915,0,0,0-13.83,14.584,80.152,80.152,0,0,0,2.253,97.773,78.2,78.2,0,0,0,19.591,17.332c2.124,1.32,4.295,2.544,6.453,3.637Z" transform="translate(861.143 -531.635) rotate(128)" fill="#1a1a1a"/>
</svg>
